<svg xmlns="http://www.w3.org/2000/svg" viewBox="0 0 1600 1000"><g fill="none" stroke="#fff"><path d="M700 0v1000M840 0v1000M980 0v1000M1120 0v1000M1260 0v1000M1400 0v1000M1540 0v1000M0 180h1600M0 320h1600M0 460h1600M0 600h1600M0 740h1600M0 880h1600" opacity=".14"/><rect x="840" y="180" width="420" height="420" rx="62" stroke-width="2" opacity=".42"/><rect x="910" y="250" width="280" height="280" rx="44" stroke-width="1.5" opacity=".33"/><path d="M740 800h650M1065 675v250" stroke-width="2" opacity=".35"/></g><g fill="#fff" opacity=".55"><circle cx="840" cy="180" r="7"/><circle cx="1260" cy="600" r="7"/><circle cx="1065" cy="800" r="6"/></g></svg>
